Coordinates
version=1
nRows=24
nColumns=24
inDegrees=yes

Units are S.I. units (second, meters, Newtons, ...)
Angles are in degrees.

endheader
time	pelvis_tilt	pelvis_list	pelvis_rotation	pelvis_tx	pelvis_ty	pelvis_tz	hip_flexion_r	hip_adduction_r	hip_rotation_r	knee_angle_r	ankle_angle_r	subtalar_angle_r	mtp_angle_r	hip_flexion_l	hip_adduction_l	hip_rotation_l	knee_angle_l	ankle_angle_l	subtalar_angle_l	mtp_angle_l	lumbar_extension	lumbar_bending	lumbar_rotation
      0.97466667	      6.06373751	      1.76773531	      2.22585213	     -0.08255028	      1.01858290	      0.29257623	    -23.85361317	      1.09326547	     -2.83147184	     -6.38195520	      7.28858202	     -2.73175923	      2.90233463	     10.62919009	      3.93509998	      6.42480137	      1.53015626	      2.48378370	     -6.65934822	     -1.62109881	    -20.54443880	      3.31541511	      5.56078459
      0.97883333	      6.06956843	      1.82743282	      2.20029480	     -0.07681170	      1.01800071	      0.29222262	    -23.92534537	      0.98978512	     -2.84920714	     -6.93424411	      7.25662560	     -2.69457052	      3.03339784	     10.56980761	      4.07747150	      6.59966433	      1.43367600	      2.33539212	     -6.64428126	     -1.60623593	    -20.54265213	      3.20970435	      5.52201682
      0.98300000	      6.04939954	      1.88312523	      2.16343057	     -0.07103046	      1.01740138	      0.29182335	    -23.91028649	      0.86798713	     -2.96177906	     -7.60851700	      7.25582490	     -2.42772176	      3.36082125	     10.51895431	      4.22129969	      6.84351271	      1.30247218	      2.14302034	     -6.81329980	     -1.56443777	    -20.47808119	      3.13933324	      5.46388141
      0.98716667	      6.06545593	      1.96561426	      2.14569742	     -0.06526650	      1.01685971	      0.29140656	    -23.93408596	      0.73083974	     -3.06368831	     -8.28108773	      7.22030970	     -2.24145221	      3.97382751	     10.44553345	      4.39921972	      7.11902718	      1.07487591	      1.86112860	     -7.07701767	     -1.48107383	    -20.48959279	      3.04515410	      5.38346783
      0.99133333	      6.15485252	      2.07688291	      2.11137681	     -0.05942107	      1.01646189	      0.29105570	    -24.06603881	      0.57313924	     -3.08558549	     -8.87319682	      6.92846539	     -2.34828991	      8.47152611	     10.25066815	      4.59655385	      7.41600473	      0.86989276	      1.49100443	     -7.41537205	     -0.84301790	    -20.56306143	      2.89315500	      5.29250780
      0.99550000	      6.08132317	      2.15941508	      2.08079350	     -0.05362066	      1.01587445	      0.29067304	    -23.93473276	      0.43037909	     -3.10634714	     -9.65934504	      6.87637613	     -2.29893142	      8.54552464	     10.33042214	      4.77846484	      7.54102631	      0.40649463	      1.32743329	     -7.44081755	     -0.83864480	    -20.45671478	      2.77370245	      5.26495099
      0.99966667	      6.08981541	      2.24865224	      2.05966809	     -0.04780567	      1.01540855	      0.29023990	    -23.86981920	      0.27644929	     -3.22510715	    -10.48228702	      6.76215502	     -2.09509405	      8.75183814	     10.28748148	      4.96904679	      7.76939348	     -0.02518637	      1.00152839	     -7.74690588	     -0.82327984	    -20.42977657	      2.66466709	      5.16914044
      1.00383333	      6.15618050	      2.35084436	      2.03037725	     -0.04197556	      1.01504960	      0.28986667	    -23.88532323	      0.12608309	     -3.23630289	    -11.25088034	      6.49000458	     -2.18138599	      8.79882751	     10.20993084	      5.16706141	      7.86569937	     -0.55713728	      0.76337939	     -7.86023946	     -0.82182662	    -20.48389359	      2.54051569	      5.12248407
      1.00800000	      6.17346170	      2.47989761	      2.03074206	     -0.03611751	      1.01462696	      0.28939322	    -23.79541840	     -0.06274256	     -3.38918017	    -12.14123449	      6.30829777	     -1.99172977	      9.48966651	     10.11166327	      5.40831845	      8.32838441	     -0.96994686	      0.23533352	     -8.63928647	     -0.75893507	    -20.47025810	      2.37079771	      4.97233019
      1.01216667	      6.12764677	      2.57516799	      1.99068087	     -0.03026945	      1.01418593	      0.28898260	    -23.59544771	     -0.23027773	     -3.41897586	    -13.09563345	      6.06939643	     -1.95450731	      9.90699483	     10.15394471	      5.60591095	      8.46412859	     -1.54769097	     -0.18917857	     -8.96683586	     -0.72748059	    -20.38555090	      2.26478006	      4.88364244
      1.01633333	      6.17073287	      2.69195140	      1.98334229	     -0.02442254	      1.01385989	      0.28852776	    -23.49200769	     -0.40522792	     -3.52568438	    -14.03904693	      5.76267360	     -1.88087643	     10.64446927	     10.08341906	      5.83305922	      8.72673593	     -2.11652299	     -0.68010520	     -9.58019491	     -0.67558703	    -20.40825541	      2.11631292	      4.75103549
      1.02050000	      6.23617056	      2.81055679	      1.94412685	     -0.01855263	      1.01360142	      0.28814577	    -23.39161649	     -0.58440716	     -3.55775783	    -14.99323904	      5.23917991	     -2.14300644	     17.56790125	      9.99817026	      6.04769322	      8.85521772	     -2.72413488	     -1.03734700	     -9.93860648	     -0.19236951	    -20.45884580	      1.94394211	      4.70182560
      1.02466667	      6.25121495	      2.93523775	      1.92304377	     -0.01267140	      1.01330023	      0.28769721	    -23.18862853	     -0.78222809	     -3.68240662	    -16.05795004	      4.80241483	     -2.06978246	     17.64415610	      9.98498243	      6.27656582	      8.95884824	     -3.38035800	     -1.41033710	    -10.27796615	     -0.20343091	    -20.43061261	      1.79525549	      4.55816175
      1.02883333	      6.29632994	      3.05667911	      1.89560253	     -0.00682540	      1.01307315	      0.28724410	    -22.99217612	     -0.97641168	     -3.77507452	    -17.15368963	      4.33128315	     -2.07275106	     17.84119643	      9.93397744	      6.50430359	      9.12113106	     -4.03686293	     -1.82270857	    -10.80415600	     -0.21835736	    -20.46083585	      1.65695632	      4.43641178
      1.03300000	      6.31229282	      3.17428419	      1.85510429	     -0.00095141	      1.01283454	      0.28682433	    -22.72444474	     -1.17458367	     -3.86439326	    -18.31603447	      3.76970235	     -2.15267868	     18.04761562	      9.91413008	      6.72007942	      9.21885543	     -4.70042007	     -2.15186370	    -11.18582261	     -0.23251853	    -20.43605651	      1.49985113	      4.33084756
      1.03716667	      6.34734403	      3.28868238	      1.82633650	      0.00486798	      1.01263878	      0.28635284	    -22.44749896	     -1.37232649	     -3.97285593	    -19.51883345	      3.19539668	     -2.15888361	     18.48625562	      9.88669620	      6.94243109	      9.37257395	     -5.39962612	     -2.51314560	    -11.73658627	     -0.25807761	    -20.46210468	      1.38073727	      4.19539435
      1.04133333	      6.45870717	      3.43225335	      1.75917156	      0.01072080	      1.01258189	      0.28596119	    -22.23133610	     -1.61020311	     -4.07397123	    -20.73154294	      2.42528453	     -2.37730932	     24.34035614	      9.75603889	      7.17777061	      9.44374442	     -6.06598397	     -2.73948048	    -12.11886553	     -0.55278103	    -20.56891453	      1.18510360	      4.12936808
      1.04550000	      6.51212410	      3.56765307	      1.69905824	      0.01656572	      1.01247329	      0.28553381	    -21.90738231	     -1.85147891	     -4.20092772	    -22.03048645	      1.66616184	     -2.42549791	     24.38706062	      9.71144539	      7.40716482	      9.45752984	     -6.78538963	     -2.89827536	    -12.36911853	     -0.55897680	    -20.59633465	      1.03202972	      3.99800783
      1.04966667	      6.55430489	      3.68456366	      1.63421602	      0.02237067	      1.01236671	      0.28511062	    -21.52687493	     -2.08109224	     -4.32204636	    -23.39433182	      0.88528643	     -2.51323714	     24.49611156	      9.68014679	      7.61859250	      9.50102023	     -7.51171025	     -3.01657904	    -12.69701784	     -0.57199158	    -20.61408125	      0.88521444	      3.87457878
      1.05383333	      6.61867268	      3.81430895	      1.55602927	      0.02815693	      1.01231323	      0.28469830	    -21.14026590	     -2.33370063	     -4.44344180	    -24.79558862	      0.03774934	     -2.61439703	     24.68644987	      9.61986882	      7.84163470	      9.53838517	     -8.23266423	     -3.08595142	    -13.02114689	     -0.59502481	    -20.66334196	      0.73074918	      3.75033916
      1.05800000	      6.78773790	      3.94917235	      1.44377855	      0.03391839	      1.01242280	      0.28432483	    -20.84796463	     -2.60478903	     -4.54923648	    -26.19917820	     -0.87929723	     -2.71114620	     24.73966490	      9.44974182	      8.06004277	      9.49298138	     -8.96802481	     -3.02211765	    -13.26163030	     -0.60127555	    -20.85245593	      0.58772920	      3.66944165
      1.06216667	      6.74275994	      4.06014112	      1.35947333	      0.03965968	      1.01226907	      0.28391770	    -20.26046843	     -2.85689834	     -4.65229427	    -27.71689993	     -1.84123199	     -2.87394187	     25.14290442	      9.51746470	      8.26695649	      9.54050541	     -9.72110114	     -2.96703974	    -13.55163398	     -0.65776114	    -20.77125514	      0.44296179	      3.52052431
      1.06633333	      6.90666247	      4.23680313	      1.22254452	      0.04541729	      1.01241325	      0.28357960	    -19.90012751	     -3.19675736	     -4.77551958	    -29.20346718	     -2.88587504	     -2.99442720	     25.27420525	      9.31252766	      8.52431596	      9.52894922	    -10.38293648	     -2.80071305	    -13.72122423	     -0.67528766	    -20.94455997	      0.21438870	      3.42249174
      1.07050000	      6.97654698	      4.34327907	      1.08963281	      0.05112116	      1.01245157	      0.28322787	    -19.39529540	     -3.47157465	     -4.86990320	    -30.71896202	     -4.06940172	     -3.29976826	     31.28782769	      9.24890952	      8.70747659	      9.43011985	    -11.12588245	     -2.50397205	    -13.77789196	     -1.72160085	    -21.00164179	      0.09297702	      3.35984923
